<svg xmlns="http://www.w3.org/2000/svg" viewBox="0 0 895.19 883.11"><defs><style>.cls-1{fill:#62afe2;}.cls-1,.cls-10,.cls-11,.cls-12,.cls-13,.cls-14,.cls-15,.cls-16,.cls-17,.cls-18,.cls-19,.cls-2,.cls-20,.cls-21,.cls-22,.cls-3,.cls-4,.cls-5,.cls-6,.cls-7,.cls-8,.cls-9{fill-rule:evenodd;}.cls-2{fill:#f9bc00;}.cls-3{fill:#f1d550;}.cls-4{fill:#030000;}.cls-5{fill:#58a8de;}.cls-6{fill:#8fccef;}.cls-7{fill:#fff;}.cls-8{fill:#6eacd1;}.cls-9{fill:#6fc0ec;}.cls-10{fill:#93c3d7;}.cls-11{fill:#adc8d5;}.cls-12{fill:#d6cb69;}.cls-13{fill:#d3ebf4;}.cls-14{fill:#c0bc99;}.cls-15{fill:#6092b7;}.cls-16{fill:#114a66;}.cls-17{fill:#8ea4b0;}.cls-18{fill:#e7d882;}.cls-19{fill:#e9b500;}.cls-20{fill:#edb817;}.cls-21{fill:#818383;}.cls-22{fill:#737273;}</style></defs><g id="Layer_2" data-name="Layer 2"><g id="图层_1" data-name="图层 1"><path class="cls-1" d="M651.65,488.4c-7,21.51-42.47,12.78-34.4-12,6.25-19.19,43.41-15.67,34.4,12ZM532.53,475.27c-7.41,24.13-44.51,16.66-33.58-11,10.11-25.55,40.6-11.86,33.58,11Zm-30.15,52.66c29.38,1.52,60.49,2.06,90-1,66.46-6.95,75.78-15.54,94-89.85C692.48,412,700.08,388.9,704,362.94c3.77-25,1.36-21.38-21.14-21.94-14.71-.37-29.45-.11-44.11-1.4-7.22-.64-14.72-2.75-21.47-2.89-7.5-.15-14-.28-21.51-.84-58-4.35-61.22-18.16-56.48-79.28,1.11-14.38,1.73-28.34,3.85-42.63,1.79-12.13,4.72-28.51,4.8-40.47-32.65-.45-37.55-6.3-47.45-35.23-20.26-2.06-70.42,43.27-84,67.05-21.32,37.24-24.55,86.66-22.56,129.2C396,379.79,417.35,406,435.8,444.35c2.62,5.45,8.82,23.82,11.6,26.6l29.66,26.38c3.72,3.88,4.08,7.17,8.51,10.57C494.4,514.67,495.71,521.32,502.38,527.93Z"/><path class="cls-2" d="M731.76,290.84c16.93-.62,49.39-6.56,60.9-19.57-2.45-3.95-3.7-3.52-1.25-8.35,11-5.89,23.71,13.29-9,26.79-31.68,13.06-75.75,14.14-107.13,4.74-33.87-10.15-18.87-31.55-11-26.18,1.41,4.38-.19,6-.58,10.16,10.39,10.63,53.21,13,68.1,12.41Zm27.17-126.23c10.31-4,23.67,1.69,27,12.11s.17,23.25-11.51,26.13c-31.38,7.74-35-30.76-15.44-38.24Zm-98.22-4.31c9.72-3.73,23.9-1.25,28.19,9.45,3.91,9.75-.36,23.09-10.78,26.4-29,9.2-41-26.78-17.41-35.85Zm168.1,106.2c1.46-33.92.33-69.82-1.3-103.76-.68-14.14,1.13-35.76-15.72-38.35-16.55-2.54-34.6-2.44-51.4-2.54-165.22-.94-146.61-10.68-149.47,65.79-.64,17.13-.81,34.29-1.58,51.37s-3,34.45-3,51.35,1,30.37,19.64,34.11c31.86,6.36,125.31,5.19,157.16,3.54C829.8,325.6,826.46,320.57,828.81,266.5Z"/><path class="cls-1" d="M406.06,470.5c-2.87-11.24-9.88-29.42-14.53-40.3-5.8-13.6-12.15-24.55-28.09-26.77-17.62-2.46-67.38,7.69-98.14,8.58-34.29,1-71.67.39-105.81-2.79-43.44-4.06-68.26-8.19-67.08,37.12,65.68,3.46,53.69,31.82,57.08,64.8,12.6,5.69,35.74,4.55,50.2,4.35L252.18,518c18.26.52,35,1.73,53.68,1.64,14.23-.07,38.95-2.76,51.11,4,1.4-11.48,13.55-23.62,21.11-30.94C385.38,485.54,401.26,476.82,406.06,470.5Z"/><path class="cls-1" d="M242.09,242.11c-6.28,17.72,7.6,118.11,14.76,138.79a407,407,0,0,0,55-2.32c7-.75,49.83-4.91,52.12-6.11,2-3.15,3.55-58.62,4.53-68.5,2.16-21.87,5.34-43.42,7.58-65C351.28,238.46,261.7,237.11,242.09,242.11Z"/><path class="cls-3" d="M376.72,396.25c-1.22-12.11,18.8-11.89,16.78.87-4.2,4.82-13.13,4.14-16.78-.87Zm-281-156.17c-2.28-2.89.43-1.6-4.43-3.2.38,5.17.13,2.3,2.31,3.58,12.15,23.45,13.24,43.67,13.61,70.18.48,34.67-.92,44-11.46,72.86,20.06-5.2,14.31,27.83-5.79,12.56-12.8,14-17.76,33.43-17.9,52.28l11.41-2.17c1.18-52.5,22.3-50.59,66.94-46.54a950.72,950.72,0,0,0,111.35,4c26.77-.63,85.26-12.38,106.54-7.39,32.57,7.63,33.53,53.08,44.89,70.71l22.54-5.05c-3.49-10.37-12.19-26.72-18.07-36.32C391,382.17,385,342.38,387.74,291.73c1.95-36.22,4.78-55.86,20.93-88.3,11.57-23.23,35-39.55,52.89-56.51-7,1.84-9.88,6.72-16.14,9.85-2,4.24-23.63,22.31-29.11,26.91-9.15,7.69-23.53,16.33-35.3,19.67-29,8.23-67.47,11.9-97.81,12.93-17.66.59-34.76,2.5-52.3,4.07s-34.71,1.41-52.14,2.65-34.38,2.92-51.84,3.26c-30.89.59-22.21-10.8-22.1-27.06C98.88,208.07,90.91,214.56,90,227c4.91-2.19,10.48-5.88,16.43-2.08,4.92,3.14,3.63,10.83,1.71,15.51-3.56.88-9.31,2.19-12.47-.36Zm126.89-5.72c4.44,11.52,6.21,91.24,14,127.59,1.77,8.21,7.58,24.73-3.36,27.69-13.89,3.77-89.71,3.86-101.47.84-12.7-3.27-15.16-5.41-16.48-19-1.9-19.48-2.24-49.77-1.21-69.44.78-15.17-2.85-55.73,9.26-61.78,11.3-5.65,90.43-7.09,99.23-5.9Zm11.71,2.19c-4.09,38.34,5.05,95.92,12.59,134.26,3.15,16,1.34,18.43,18.46,18l104.37-8.3c4.14-6.31,3.24-27.64,3.5-36.4.38-13.27,1.42-25.06,2.51-38.18,1-12.52,2.29-24.7,3.85-37.15,1.05-8.45,5.08-28.42,4.6-35.35L380.92,230c-11.27-.26-24.46,1.31-36.88,1.11-27.8-.47-87.54-2.15-109.75,5.44ZM386.76,204c16.8-4.89,19.38,21.19,4.87,24.22C373,232.1,370.93,208.59,386.76,204Z"/><path class="cls-1" d="M445.42,156.77c1.68-4.48,7.27-10.12,6.13-15C434.86,136.22,285,159.05,257,161.56c-16.31,1.47-30.13,2.2-46.44,4.7-18.06,2.77-69.1,12-84.49,17-9,3-17.68,22.94-15,33.6,6.5,6.87,35.1,2.32,45.54,1.36,15.73-1.46,30.87-2.3,46.63-3.2,31.38-1.78,61.51-6.07,93.13-7.12,21.77-.72,66.25-6.49,86.13-13.9C411.67,183.18,415.47,165.76,445.42,156.77Z"/><path class="cls-1" d="M230.67,381.06c.23-8.38-7.33-49.15-8.69-68.07-1.69-23.68-3.59-47-5.49-70.62-19.07.15-67.36-.86-83.52,4-7.28,2.19-8.79,3.51-10.08,11.34-2.62,16-2.3,87.88-.41,106.44,2,19.28,3.28,20.08,23.52,20.64C163.6,385.26,216.05,385.86,230.67,381.06Z"/><path class="cls-1" d="M441.18,479.88a9.28,9.28,0,0,0-4.39-3.67c-17.68-12.68-75.35,32.6-70,59.71,4.71,24,42.78,60.15,63.83,71.62,11.09,6,14,5.94,23.86-1.57,22.18-17,56.55-26.81,49.75-49.84-5.45-18.41-29.44-46.77-44.8-60.09C456,493,442.86,482.42,441.18,479.88Z"/><path class="cls-1" d="M593.22,101.55c-6.43-6.23-5.25-9.42,1.23-15.19l6.88,0,5.29,4.45.07,6.29c-4.18,5.25-6.78,5.15-13.47,4.5Zm181.6-12.8c11.54-14.11,22,4.65,13,9.55-6.28,1.52-8.32.48-12.65-3.84l-.36-5.71ZM576.62,109l9.28,9.87c8.44,1,37-5.8,49.14-6.67,31.42-2.25,145.3-1.75,172.19,0-.89-12.45-1.68-24.08-4.33-36.26-7.31-1.56-24.47-.39-33-.39l-99.7-3.9c-21.9-1.64-44.24-.27-66.18-2.08-6.15-.51-8-2.64-12.8,1.53C582.53,78.75,575.76,96.36,576.62,109Z"/><path class="cls-1" d="M136.94,517c.8-9.1,1.3-37.23-1.92-45-3.59-8.68-25.67-13.43-34.5-14.4-40.16-4.41-48.23,8.81-50.81,46.24-4.18,60.59,9.89,54.93,38.84,58.77C123.67,567.29,132.21,571.06,136.94,517Z"/><path class="cls-3" d="M607.2,327.7c-11.52-15.61-12.62-25.68-11-46.3,1.42-17.68,3-34.12,3.75-51.86.75-18,1.54-36.93,1.6-54.9s-1.45-32,6.78-48.47l-18.32,2.42c-1.38,10.07,1.94,11.87-3,24.2-3.26,8.07-6.7,10.21-12.12,15.37-5.86,29.21-5.5,53.62-7,82.88-.78,14.91-1.58,29.17-.67,44.11.83,13.68,3.92,21.38,13.07,30.6Z"/><path class="cls-1" d="M65,438.75c2.12-4.61,2.31-11.39,4-16.74,11.16-35.84,30-32.16,30.4-109,.12-19.79-1.18-50.91-12.39-67.44-10.81-15.94-9.73-9.67-2.78-27.78,4.26-11.12,10.43-17.12,14.05-25.55C56.55,201.7,66.75,269.13,66.54,301.1c-.08,11.95-.31,22.62.48,34.6C68.57,359.44,62.89,410.09,65,438.75Z"/><path class="cls-1" d="M625.59,531.37c6.25,25.78,17.4,34.28-15.53,45.36-26.83,9-26.22-29.6-34.93-38.43.21,11.87,5.72,47.8,10.59,58,4.24,8.83,9.82,12.87,19.57,13.71,53.24,4.57,65.54,8.16,63.11-32.1-1-16.78-2.19-46-5.12-61.54C651.38,526.94,641.66,528.9,625.59,531.37Z"/><path class="cls-4" d="M242.09,242.11c19.61-5,109.19-3.65,134-3.13-2.24,21.57-5.42,43.12-7.58,65-1,9.88-2.57,65.35-4.53,68.5-2.29,1.2-45.16,5.36-52.12,6.11a407,407,0,0,1-55,2.32c-7.16-20.68-21-121.07-14.76-138.79Zm-7.8-5.56c-4.09,38.34,5.05,95.92,12.59,134.26,3.15,16,1.34,18.43,18.46,18l104.37-8.3c4.14-6.31,3.24-27.64,3.5-36.4.38-13.27,1.42-25.06,2.51-38.18,1-12.52,2.29-24.7,3.85-37.15,1.05-8.45,5.08-28.42,4.6-35.35L380.92,230c-11.27-.26-24.46,1.31-36.88,1.11C316.24,230.64,256.5,229,234.29,236.55Z"/><path class="cls-4" d="M230.67,381.06c-14.62,4.8-67.07,4.2-84.67,3.71-20.24-.56-21.55-1.36-23.52-20.64-1.89-18.56-2.21-90.44.41-106.44,1.29-7.83,2.8-9.15,10.08-11.34,16.16-4.84,64.45-3.83,83.52-4,1.9,23.6,3.8,46.94,5.49,70.62,1.36,18.92,8.92,59.69,8.69,68.07Zm-8.09-146.7c-8.8-1.19-87.93.25-99.23,5.9-12.11,6.05-8.48,46.61-9.26,61.78-1,19.67-.69,50,1.21,69.44,1.32,13.59,3.78,15.73,16.48,19,11.76,3,87.58,2.93,101.47-.84,10.94-3,5.13-19.48,3.36-27.69C228.79,325.6,227,245.88,222.58,234.36Z"/><path class="cls-1" d="M721.09,766.32c-12.33-3.31-10.93-2.72-23.93-2.37-8.39.23-18.31.77-26.54.36,11.33,8.21,12.13,6.72,18.45,20.88,4.48,10,4.93,22.84,1.88,33.47-8.67,30.14-35.63,29.2-42.84,33.81,20.74,5.47,59.42,1.3,73.56-16.27C731.83,823.56,738.51,781.91,721.09,766.32Z"/><path class="cls-1" d="M91.67,748.09c1.72,4.36,5.82,6.37,9,11.11,9,13.42,15.49,29.24,8,45.11-4.93,10.5-11.37,13.29-19.38,19.93-17.72,14.71-17,7.31-24.88,13.48,104.64,9.44,95.86-83.47,55.05-95.31-3.67,2.82-11.4.37-16.41,1.23C99,744.35,95.58,746.84,91.67,748.09Z"/><path class="cls-1" d="M533.55,742.85c1.24,2,28.86,19.91,14.68,51.06-6.55,14.37-14.58,17.13-17.14,19.93-5.51,6-18.51,9.66-23.34,11.57,15.27,1.49,25.76.61,40.3-1.71,27.56-4.41,45.1-32.36,41.62-53.58-.82-5-4.2-14-7-18-3.93-5.6-8.29-8.26-11.77-13.39l-2.21,1.1c-5.58,1.37-11.24-.34-17,.17C544.72,740.58,539.4,742.48,533.55,742.85Z"/><path class="cls-1" d="M312.08,736.64c2.54,2.78,6.94,4.86,9.81,7.73,19.84,19.86,15.94,45.34.66,61.33-11.12,11.64-15,11.24-22.44,9.8-8.55,6.53-14,5.11-23.52,7.51,12.16,2.31,31.87-1,44.07-3.56,20.47-4.29,46.16-24.31,46.95-48.27.43-13.06-4.37-24.93-13.68-33.45-2.4,1.81,1.39,2.79-10-1a47.22,47.22,0,0,1-4.8-1.76c-1.81-.86-2-4-1.39-.44C333.35,734.7,314.24,733.85,312.08,736.64Z"/><path class="cls-1" d="M537.88,121.07c13.4-5.78,24.3,15.4,9.57,22-16.4,7.34-23.8-15.85-9.57-22Zm-26.67,14.2c2.05,22,14.52,27.35,34.44,27.33,8.89,0,18.68,1,25.55-5.35a27.39,27.39,0,0,0,8.32-22c-1.49-16.2-19.66-26.48-35-27.1C524.11,107.3,509,111.2,511.21,135.27Z"/><path class="cls-1" d="M245.36,537.37C254,558.13,253.55,577,280.81,578c34.18,1.3,37.45.62,44.84-32.94C294.22,545.71,265.28,537.44,245.36,537.37Z"/><path class="cls-2" d="M155.55,98C150.69,93.08,148.63,86,157,84.23c10.33-2.2,11.31,5.29,11.14,12.4-4.66.83-7.33,2.08-12.58,1.32Zm5.06-54.27c-6.1,16.59-19.47,39-13.86,57.33,5.29,17.27,20,22.07,24.59,47.51,1-1.74,5.88-22,7.95-27.66C189.93,91.57,178.56,71,160.61,43.68Z"/><path class="cls-2" d="M568.75,28.45c8.1-1.42,14,4.11,8.65,9.73-4.5,4.75-11.38.84-11.63-6.88l3-2.85Zm-5.63-16.61c-11,4.65-19.38,21.53-12.92,33,6.16,10.89,19.22,19.61,32.73,16.81,8.56-1.78,9.85-3.74,13-12.12,2.61-7,2.94-13.71.41-20.87C592.22,17.1,575.31,6.71,563.12,11.84Z"/><path class="cls-1" d="M850.62,138.44c9.64-4.21,18,5.08,9.65,11.85-5.85.67-6.49-.23-10.28-4.11l.63-7.74Zm-10.37,26.72c8.51,2.89,23.22,5.79,31.6,1.68s12.46-15.88,10.78-25.06C878.57,119.7,853.49,115,837,127.28Z"/><path class="cls-4" d="M791.41,262.92c-2.45,4.83-1.2,4.4,1.25,8.35-11.51,13-44,19-60.9,19.57-14.89.55-57.71-1.78-68.1-12.41.39-4.19,2-5.78.58-10.16-7.85-5.37-22.85,16,11,26.18,31.38,9.4,75.45,8.32,107.13-4.74C815.12,276.21,802.43,257,791.41,262.92Z"/><path class="cls-1" d="M564.3,322c-1.9-5.71-4.32-7.86-5.34-15.1-3.71-26.5,3.8-110.31,7.27-135L557,174c-4.91,44.33-9.23,77.35-8.72,122.36C548.43,311.09,551.18,316.21,564.3,322Z"/><path class="cls-3" d="M32.84,792.61c-3.4-29.11,40.84-29.74,44.41-2.21,4.22,32.57-41.49,27.14-44.41,2.21Zm-10.17-4.77c2.4,14.91,16.31,28.66,31.5,29.31,15.72.68,33.88-10.66,30.33-28.53C76.11,746.38,16.44,749.18,22.67,787.84Z"/><path class="cls-3" d="M504.41,763.23c3.53,3.2,5.69,2.78,7.7,6.72,5.14,10.1,2.55,29-14.67,28.12-5.73-.29-15.71-8.12-12.63-18.55,4.93-16.7,16-15,19.6-16.29Zm-21.77-1.42c-1,2.07,2.43-1.65-1.25,3.54-1.48,2.08-1.39,1.91-2.36,4.87-5.7,17.42,1,23.41,4,29,3.16,5.81,7.3,8.33,16,7.95,37.11-1.62,35.7-53,1-54.46C495.89,752.52,484.28,758.43,482.64,761.81Z"/><path class="cls-3" d="M622.16,811.7C616.68,787.54,647.58,780.26,652,801c5.65,26.31-25.94,28.09-29.87,10.75ZM615,809.31c6,36.68,57.24,22.3,46.95-11.27-3.79-12.37-15.54-23.26-29.19-22.74C616.36,775.92,612.79,796.1,615,809.31Z"/><path class="cls-4" d="M768,194.17c-12.44,2-8.54-16-3.43-20,6.47,4.55,5.4,13.18,3.43,20Zm-9.08-29.56c-19.51,7.48-15.94,46,15.44,38.24,11.68-2.88,14.76-15.79,11.51-26.13S769.24,160.65,758.93,164.61Z"/><path class="cls-4" d="M664.16,169.74c2.93,6.07,3.6,11.72.7,17.85-8.75-2.29-10.45-16.21-.7-17.85Zm12.57-1.57c7.27,4.54,6,15.55-.19,19.56,1.88-8.4,2.13-11,.19-19.56Zm-16-7.87c-23.61,9.07-11.54,45,17.41,35.85,10.42-3.31,14.69-16.65,10.78-26.4C684.61,159.05,670.43,156.57,660.71,160.3Z"/><path class="cls-1" d="M96.26,594.44l-11.17-.32c1.1,15.25,2.65,30.48,3.17,45.78.36,10.7-1.31,41,.51,48.52l9.49.26C100.88,659.37,101.52,623.21,96.26,594.44Z"/><path class="cls-2" d="M817.48,46.87c5.17-6.76,15.68-4,13.83,5.45-5.25,4.76-13.75,2.38-13.83-5.45Zm7.62-18C814.29,32,807,38.43,807.76,50.61c.89,14,7.14,20.16,21.85,18.06C854.71,65.07,846.92,22.46,825.1,28.83Z"/><path class="cls-3" d="M585.51,536.77c-1,4.62,7.23,24.51,10.26,29.18,6,9.24,21.3-.89,27.45-5.49.32-8.61-2.63-20.44-7.19-27.41Z"/><path class="cls-4" d="M49.18,780.24c16.6-7.41,25.35,19.19,12.59,23.57-15.56,5.33-26.1-17.53-12.59-23.57ZM32.84,792.61c2.92,24.93,48.63,30.36,44.41-2.21C73.68,762.87,29.44,763.5,32.84,792.61Z"/><path class="cls-4" d="M514.4,480.9c-13.38.37-8.83-17.24.24-21.39,2,4.78.56,15.57-.24,21.39Zm18.13-5.63c7-22.82-23.47-36.51-33.58-11C488,491.93,525.12,499.4,532.53,475.27Z"/><path class="cls-4" d="M625.72,487.46c-.57-6.25-1-10.76,5.56-13.23,3.75,3.57,3,11.77,2.36,17.4-4.87-.28-4.5-1.05-7.92-4.17Zm25.93.94c9-27.64-28.15-31.16-34.4-12C609.18,501.18,644.63,509.91,651.65,488.4Z"/><path class="cls-5" d="M615.08,839.76l4.51.4c0-6-.44-.66-2.9-7.17-.59-2.55-7.07-10-9.15-15.11-3-7.46-3.17-13.76-2.28-21.74,1.76-15.91,7.44-19.78,19-28.52L610,766.26c-5.07,2.92-6.26,6.67-11.43,7.6,1.64,24.43-9.92,19.74-4.43,39.48C596.6,822.29,606.53,838.22,615.08,839.76Z"/><path class="cls-1" d="M511.72,814.45c-3.46-2.25-2.22,1.49-13.7.52-38.45-3.24-33-52.76-14.14-64.91,3.45-2.22,9.36-4.31,12-6.88-7.72-1.4-9.63-3-15.38.89C451,763.85,458.6,801.45,477.13,817,483.83,822.59,504.88,819.53,511.72,814.45Z"/><polygon class="cls-6" points="649.45 718.09 660.37 717.19 640.22 642.54 630.66 643.18 649.45 718.09"/><path class="cls-7" d="M670.62,764.31c8.23.41,18.15-.13,26.54-.36,13-.35,11.6-.94,23.93,2.37-7.74-14-25.58-14.08-40.63-14.78-12.57-.58-39.54.53-50.5,5.2C647.12,757.17,655,757.33,670.62,764.31Z"/><path class="cls-5" d="M301.66,684.36l5-.05c1.3-11.91-2.73-66.81-7-78.15l-8.26.27Z"/><path class="cls-4" d="M641.11,815.08c-14.16,3.39-13.75-14.25-6-17.83,9.32-4.29,11.36,9.92,6,17.83Zm-19-3.38C626.09,829,657.68,827.26,652,801,647.58,780.26,616.68,787.54,622.16,811.7Z"/><path class="cls-4" d="M491.72,785.64c1.36-8.21.81-11.18,9.79-14.49,6.14,5.25,5.74,1.68,5.07,10.87-.44,6-.91,4.83-5,9.4-6.85.1-6.12-.61-9.82-5.78Zm12.69-22.41c-3.63,1.28-14.67-.41-19.6,16.29-3.08,10.43,6.9,18.26,12.63,18.55,17.22.87,19.81-18,14.67-28.12C510.1,766,507.94,766.43,504.41,763.23Z"/><path class="cls-3" d="M273.44,766.4c7.64,4.53,12,13.8,8.36,22.4-1.45,3.41-4.64,7.31-8.38,8.34-6.38,1.76-8.23-1-12.84-2.15l-.72-.16c1.1,11.69,28.24,9.83,33-5.77,8.2-26.94-23.06-29.81-20.68-26.39C274.74,764.71,273.61,763,273.44,766.4Z"/><path class="cls-4" d="M272.25,775.05a12.55,12.55,0,0,1,.38,15.18l-5.24.2c-4.14-6.28-5.33-16.26,4.86-15.38ZM260.58,795c4.61,1.1,6.46,3.91,12.84,2.15,3.74-1,6.93-4.93,8.38-8.34,3.65-8.6-.72-17.87-8.36-22.4C253.94,766.19,254.74,780.89,260.58,795Z"/><path class="cls-3" d="M49.18,780.24c-13.51,6-3,28.9,12.59,23.57C74.53,799.43,65.78,772.83,49.18,780.24Z"/><path class="cls-1" d="M674.67,741.18c.3-5.66-.32-8.34-3.92-12.63-11.41-2-20.26-.76-31.22,2.77l.73,12.43Z"/><path class="cls-1" d="M495.22,623.06c3.91.26,4.54,3,7.12,6.5,2,2.74,4.45,5.64,6.16,8.17,3.77,5.56,7.52,10.7,11,16.59,3.26-3.2,4.78-5,9.68-6.54-2.47-6.94-19-26.56-25.28-31.48C501.94,617.09,493.57,621.89,495.22,623.06Z"/><path class="cls-1" d="M543.62,724l-.21-13.5c-4.42-3.7-23.95-3.71-28.4-.17-1.76,3.12-1.51,8.68-1.08,13.14Z"/><path class="cls-4" d="M386,220.84c-2.15-4.86.85-9.18,5.81-9.26,1.49,5.41.47,10-5.81,9.26Zm.75-16.86c-15.83,4.61-13.79,28.12,4.87,24.22C406.14,225.17,403.56,199.09,386.76,204Z"/><path class="cls-1" d="M480.9,617.16c5.05-2,12.62-8.4,17.23-11.62,9.72-6.78,7.45-7.08,2.2-15.68-5.74,1.92-26.68,14.38-29.71,19C473.27,612.4,477.53,615,480.9,617.16Z"/><path class="cls-4" d="M544.4,128.15c2.27,3.67,2.1,3.54.46,7.55l-5.65.56c-1.89-6.28-1-8.86,5.19-8.11Zm-6.52-7.08c-14.23,6.14-6.83,29.33,9.57,22C562.18,136.47,551.28,115.29,537.88,121.07Z"/><path class="cls-8" d="M11.65,777.59a52.44,52.44,0,0,0,1.46,18.33c1.33,5.28,3.67,9.73,4.11,15,3.94,9.48,9.94,15,20.51,17.22,3.38.71,28.49,1.19,33.82-3.66-19.57,1.85-28.69,4-43.2-10.85-4-4-9.41-9.86-11.94-15.43-3.84-8.44-2.25-18.78-4.38-23Z"/><path class="cls-5" d="M240.74,787.34l-.57-3.07c2.58-3.34-1.14-.29,4-3.37l1.36-8.07c3,1.06.57-.49,1.52,1.56,1-19.18,23.51-26.27,28.07-31.09-15.79,1-20.12-2-29.33,11.9C238.77,765.73,241,776.17,240.74,787.34Z"/><path class="cls-7" d="M91.67,748.09c3.91-1.25,7.29-3.74,11.42-4.45,5-.86,12.74,1.59,16.41-1.23-14.77-7.82-39.16-8.83-55.93-7,4.25,2.25,10.05,3.41,14.84,5.48S87.31,746.26,91.67,748.09Z"/><path class="cls-3" d="M241.75,526.05c1.13,5.32,2.54,3.85,9,4.43,3.55.32,7.17.81,10.73,1.21,9.69,1.08,62.48,10.47,66.7,2.81Z"/><path class="cls-1" d="M76.59,723.72c4.11,1.52,23.36,2.23,28.3,1.65l1.09-9.49c-8.62-1.47-23.63-5-31,.48Z"/><path class="cls-7" d="M514.49,732.9l.17,2.82c6.45.6,13.64,3.76,18.89,7.13,5.85-.37,11.17-2.27,18.05-2.87,5.8-.51,11.46,1.2,17-.17-3.71-2.07-12.82-3.94-14.39-5.48-5.91.23-14.26-1.86-21.66-2Z"/><path class="cls-1" d="M524.72,676.22c1.09,7.29-1.87,17.16.24,22.5,2.38,1.08,9.78,1.19,12.34-.29,1-1.83,2-19.66,1.71-21.47Z"/><path class="cls-9" d="M529,760.4c4.56,12.15,6.15,16.38,3.86,30.38,9.39-2.72,10.73-6.46,9.84-16.23-.67-7.34-.71-12-6.31-16.67l-6.08-.72Z"/><path class="cls-1" d="M78.37,583.61l27,1.1.44-8c-6.74-3.4-19.73-3.68-28.13-4.6Z"/><path class="cls-9" d="M616.14,622.55c1.75,12,4.05,12.08,16.61,11.16,7.85-.57,13.68-1.56,14-10.12Z"/><path class="cls-10" d="M289.41,742.81c10.44,3.43,11,2.25,18.1,11.19a56.89,56.89,0,0,1,10,18.8l6.12-5.24C321.41,749.51,306.93,740.64,289.41,742.81Z"/><path class="cls-11" d="M669.78,792.67c4.13-2.24-.49-2.12,6.51-4.46,1.05,4,.08,3.84,1,5.51.39.67,1-1.18,1.95,3.81l.68-3.14c.59-17.95-18.62-24.95-34.07-25.33,4.79,3.39,10.59,5.91,14.85,9.87C665.24,783.12,666.54,788.53,669.78,792.67Z"/><path class="cls-11" d="M58.74,749.63c8,1.82,17,5.29,23,10.67C88,766,89.61,773.59,93.51,780.65c11.12-2.95-3.61-29.31-30.35-34.5l.11,1.92Z"/><path class="cls-5" d="M319,720.67l-.35-6.41c-9.43-1.37-22.65-.12-33.07.28l.66,6.9C290,722.8,311.91,720.55,319,720.67Z"/><path class="cls-9" d="M58.74,749.63l4.53-1.56-.11-1.92c-5.66-1.44-10.54-1.57-16.17-2.38-7.76-1.12-6.48-2.93-13.86,1.58-8.33,5.11-15,9-17.47,18.9C30,750.54,37.42,747,58.74,749.63Z"/><path class="cls-3" d="M491.72,785.64c3.7,5.17,3,5.88,9.82,5.78,4.13-4.57,4.6-3.38,5-9.4.67-9.19,1.07-5.62-5.07-10.87C492.53,774.46,493.08,777.43,491.72,785.64Z"/><path class="cls-4" d="M593.14,101.6c6.7.65,9.3.75,13.48-4.5l-.08-6.29-5.28-4.45-6.89,0C587.9,92.18,586.71,95.37,593.14,101.6Z"/><path class="cls-3" d="M641.11,815.08c5.39-7.91,3.35-22.12-6-17.83C627.36,800.83,627,818.47,641.11,815.08Z"/><path class="cls-4" d="M775.18,94.46c4.33,4.32,6.37,5.36,12.65,3.84,9-4.9-1.47-23.66-13-9.55Z"/><path class="cls-4" d="M155.55,98c5.25.76,7.92-.49,12.58-1.32.17-7.11-.81-14.6-11.14-12.4C148.63,86,150.69,93.08,155.55,98Z"/><path class="cls-12" d="M661.07,832.49a35,35,0,0,0,3.78,4.48c7.43-6.13,16.58-12.61,15.88-23.7-15.3,4.74-6,1.43-13.71,12.47C665.27,828.26,662.81,829.81,661.07,832.49Z"/><path class="cls-8" d="M240.74,787.34c2.25,7.63,5,15.3,11.15,20.16l3.55.06c-2.25-7.16-.74-1.72.06-3.83-5.81-12.35-10.68-12.44-8.48-29.34-1-2,1.5-.5-1.52-1.56l-1.36,8.07c-5.11,3.08-1.39,0-4,3.37Z"/><path class="cls-4" d="M376.72,396.25c3.65,5,12.58,5.69,16.78.87C395.52,384.36,375.5,384.14,376.72,396.25Z"/><path class="cls-13" d="M312.08,736.64c2.16-2.79,21.27-1.94,25.68-2.07-.66-3.54-.42-.42,1.39.44a47.22,47.22,0,0,0,4.8,1.76c11.37,3.75,7.58,2.77,10,1-13.11-5.89-13.41-5.22-27.78-5.89a261.25,261.25,0,0,0-32,.13Z"/><path class="cls-8" d="M615.08,839.76c7,8.92,34.18,4.29,42.79-1.53-5,.24-1.73.53-2.46-1.6-8.67,3-11.36,5.19-21.53,4.09-9.21-1-10.41-4.94-17.19-7.73,2.46,6.51,2.89,1.12,2.9,7.17Z"/><path class="cls-12" d="M259.86,794.83l.72.16c-5.84-14.1-6.64-28.8,12.86-28.59.17-3.42,1.3-1.69-1.28-3.73-10.19.31-15.79.41-18.09,11.56C252.73,780.69,254.63,791.12,259.86,794.83Z"/><path class="cls-3" d="M514.4,480.9c.8-5.82,2.26-16.61.24-21.39C505.57,463.66,501,481.27,514.4,480.9Z"/><path class="cls-2" d="M768,194.17c2-6.84,3-15.47-3.43-20C759.47,178.19,755.57,196.18,768,194.17Z"/><path class="cls-6" d="M529,760.4l1.31-3.24,6.08.72c-7.12-9.75-13-10.73-22.62-13.31a10.64,10.64,0,0,0-7.35.35c3.47,2.29,9.39,3.52,13.41,6.49C522.7,753.52,526.59,759.23,529,760.4Z"/><path class="cls-9" d="M285.62,596.87c9.52,1.12,18.1,2.79,19.46-7.51l-20.21-.14Z"/><path class="cls-4" d="M850,146.18c3.79,3.88,4.43,4.78,10.28,4.11,8.3-6.77,0-16.06-9.65-11.85Z"/><path class="cls-14" d="M281.19,752.72c17.93,1.11,20.84,23.86,22.33,26.72l3.18-.51C308.39,772.86,303.49,751,281.19,752.72Z"/><polygon class="cls-9" points="79.47 704.4 102.85 705.11 101.8 699.24 78.84 698.19 79.47 704.4"/><path class="cls-9" d="M293.26,703.21l18.79-.35-1.9-7.54c-5.2-.79-12.23-.8-16.59,1.89Z"/><path class="cls-13" d="M519.5,654.32c-3.48-5.89-7.23-11-11-16.59-1.71-2.53-4.14-5.43-6.16-8.17-2.58-3.51-3.21-6.24-7.12-6.5,1.06,5.77,7.86,12.87,11.37,17.79,3.87,5.43,6.28,11.67,12.13,16Z"/><path class="cls-3" d="M272.25,775.05c-10.19-.88-9,9.1-4.86,15.38l5.24-.2A12.55,12.55,0,0,0,272.25,775.05Z"/><path class="cls-1" d="M527.18,667.93c17.86,2.16,16.41-13.65,3-11.16C525.91,660.7,526.28,662.06,527.18,667.93Z"/><path class="cls-4" d="M817.48,46.87c.08,7.83,8.58,10.21,13.83,5.45C833.16,42.9,822.65,40.11,817.48,46.87Z"/><path class="cls-4" d="M565.77,31.3C566,39,572.9,42.93,577.4,38.18c5.32-5.62-.55-11.15-8.65-9.73Z"/><path class="cls-12" d="M286.1,811c10.4-1.63,20-11.32,21.15-21.77-8.61.39-4.48,4.64-10.4,11.08C292.8,804.73,288.32,806.07,286.1,811Z"/><path class="cls-2" d="M664.16,169.74c-9.75,1.64-8,15.56.7,17.85C667.76,181.46,667.09,175.81,664.16,169.74Z"/><path class="cls-3" d="M625.72,487.46c3.42,3.12,3,3.89,7.92,4.17.6-5.63,1.39-13.83-2.36-17.4C624.76,476.7,625.15,481.21,625.72,487.46Z"/><path class="cls-10" d="M669.78,792.67l2.62,12.67,9.4-5.57c-.47-4.1.43-3-1.85-5.38l-.68,3.14c-1-5-1.56-3.14-1.95-3.81-1-1.67,0-1.46-1-5.51C669.29,790.55,673.91,790.43,669.78,792.67Z"/><path class="cls-15" d="M157,804.57c4.3-8.39,7.5-31.93-1.33-38.11,1.5,6.18,1.91,12.63,2.27,19S156.32,798.6,157,804.57Z"/><path class="cls-14" d="M90.09,811.52c7.4-4.82,11.31-13,12-22.1l-7.29,4.42C93.87,802.89,91.27,804.72,90.09,811.52Z"/><path class="cls-8" d="M741.84,813.92c7.54-2.78,6-24.11.52-30.06C743.12,796.49,743.22,801.24,741.84,813.92Z"/><path class="cls-10" d="M251.89,807.5c9,5.93,10.92,9.48,20.37,5.38.16-.07.6-.12.71-.46s.45-.35.68-.51c-8.14-1.33-12-3-18.15-8.18-.8,2.11-2.31-3.33-.06,3.83Z"/><path class="cls-16" d="M17.22,810.93c-.44-5.28-2.78-9.73-4.11-15a52.44,52.44,0,0,1-1.46-18.33C8.93,780,10,783.9,10.06,787.91c.07,3.71-.86,6.14-.63,8.54C9.84,800.62,14.07,808.6,17.22,810.93Z"/><path class="cls-17" d="M315.22,800.06c5.61-3.91,8.66-11.92,9.93-18.76-7.1,2.93-4.68.94-6.53,8.59C317.78,793.41,316.33,796.68,315.22,800.06Z"/><path class="cls-18" d="M521.49,810.84c5.46-1.52,11.51-7.15,13.2-11C528.48,800.94,526.4,799.71,521.49,810.84Z"/><path class="cls-19" d="M544.4,128.15c-6.18-.75-7.08,1.83-5.19,8.11l5.65-.56C546.5,131.69,546.67,131.82,544.4,128.15Z"/><path class="cls-20" d="M676.73,168.17c1.94,8.55,1.69,11.16-.19,19.56C682.7,183.72,684,172.71,676.73,168.17Z"/><path class="cls-3" d="M386,220.84c6.28.78,7.3-3.85,5.81-9.26C386.86,211.66,383.86,216,386,220.84Z"/><path class="cls-14" d="M655.41,836.63c.73,2.13-2.49,1.84,2.46,1.6l7-1.26a35,35,0,0,1-3.78-4.48Z"/><path class="cls-21" d="M514.66,735.72l-.17-2.82c-3.9-.85-5.94-.83-9.42,1.25,3.45,2.11,2.22,1.41,5.78,1.21C513.7,735.21,511,734.35,514.66,735.72Z"/><path class="cls-17" d="M149.87,818.85c5.4-6.64,6-4.51,7.11-14.28Z"/><path class="cls-22" d="M515.79,673.32c1.3-2.13,1.93.72.57-4.32l-3.65-.24Z"/><path class="cls-21" d="M552.36,706.47c-1.15-3.21-.75-3.6-4.2-4.81Z"/><path class="cls-21" d="M509.62,540.13l0-1.52c-1.57-1.63.26-1.68-2.29-.16C508.59,541.21,507.88,538.64,509.62,540.13Z"/><polygon class="cls-21" points="408.35 606.28 405.62 604.11 405.59 606.64 408.35 606.28"/><polygon class="cls-22" points="588.5 807.2 587.19 809.37 589.63 808.79 588.5 807.2"/><path class="cls-22" d="M412.77,609.8l-3.32-2.23Z"/><path class="cls-22" d="M588.5,807.2l2-2.74Z"/><path class="cls-4" d="M629.1,860.94c-15.27-3.58-136.89,4.56-161.22,6.36-14.71,1.09-39,4.47-52.78,3.21,2,.48,37-5.83,43.1-6.66,38.07-5.18,61.1-5.15,97-8,8.38-.66,16.84-.56,25.06-1.41,8.63-.9,16.35.66,16.52-9.7-9.18-8.61-40-10.11-53.06-10.91,3.74-.74,8.39-.91,11-2.21,17.9-8.79,6.74,3.72,31.28-20.25-1,9.67-3,7.83,3.07,17.61,11.86,19.08,34.7,25.63,40,31.91ZM615,809.31c6,36.68,57.24,22.3,46.95-11.27-3.79-12.37-15.54-23.26-29.19-22.74-16.35.62-19.92,20.8-17.76,34ZM588.5,807.2l1.13,1.59-2.44.58Zm0,0,2-2.74-2,2.74Zm-67,3.64c4.91-11.13,7-9.9,13.2-11-1.69,3.89-7.74,9.52-13.2,11Zm-431.4.68c1.18-6.8,3.78-8.63,4.73-17.68l7.29-4.42c-.71,9.11-4.62,17.28-12,22.1ZM11.65,777.59l.38-2.4c2.13,4.24.54,14.58,4.38,23,2.53,5.57,8,11.4,11.94,15.43,14.51,14.8,23.63,12.7,43.2,10.85-5.33,4.85-30.44,4.37-33.82,3.66-10.57-2.23-16.57-7.74-20.51-17.22-3.15-2.33-7.38-10.31-7.79-14.48-.23-2.4.7-4.83.63-8.54-.09-4-1.13-7.9,1.59-10.32ZM286.1,811c2.22-5,6.7-6.31,10.75-10.69,5.92-6.44,1.79-10.69,10.4-11.08-1.12,10.45-10.75,20.14-21.15,21.77ZM22.67,787.84c2.4,14.91,16.31,28.66,31.5,29.31,15.72.68,33.88-10.66,30.33-28.53-8.39-42.24-68.06-39.44-61.83-.78Zm292.55,12.22c1.11-3.38,2.56-6.65,3.4-10.17,1.85-7.65-.57-5.66,6.53-8.59-1.27,6.84-4.32,14.85-9.93,18.76Zm-43.06-37.39c-10.19.31-15.79.41-18.09,11.56-1.34,6.46.56,16.89,5.79,20.6,1.1,11.69,28.24,9.83,33-5.77,8.2-26.94-23.06-29.81-20.68-26.39ZM680,794.39c2.28,2.42,1.38,1.28,1.85,5.38l-9.4,5.57-2.62-12.67c-3.24-4.14-4.54-9.55-9-13.74-4.26-4-10.06-6.48-14.85-9.87,15.45.38,34.66,7.38,34.07,25.33ZM616.69,833c-.59-2.55-7.07-10-9.15-15.11-3-7.46-3.17-13.76-2.28-21.74,1.76-15.91,7.44-19.78,19-28.52L610,766.26c-5.07,2.92-6.26,6.67-11.43,7.6,1.64,24.43-9.92,19.74-4.43,39.48,2.48,8.95,12.41,24.88,21,26.42,7,8.92,34.18,4.29,42.79-1.53l7-1.26c7.43-6.13,16.58-12.61,15.88-23.7-15.3,4.74-6,1.43-13.71,12.47-1.75,2.52-4.21,4.07-5.95,6.75l-5.66,4.14c-8.67,3-11.36,5.19-21.53,4.09-9.21-1-10.41-4.94-17.19-7.73ZM482.64,761.81c-1,2.07,2.43-1.65-1.25,3.54-1.48,2.08-1.39,1.91-2.36,4.87-5.7,17.42,1,23.41,4,29,3.16,5.81,7.3,8.33,16,7.95,37.11-1.62,35.7-53,1-54.46-4.18-.17-15.79,5.74-17.43,9.12Zm238.45,4.51c17.42,15.59,10.74,57.24.58,69.88-14.14,17.57-52.82,21.74-73.56,16.27,7.21-4.61,34.17-3.67,42.84-33.81,3-10.63,2.6-23.42-1.88-33.47-6.32-14.16-7.12-12.67-18.45-20.88-15.65-7-23.5-7.14-40.66-7.57,11-4.67,37.93-5.78,50.5-5.2,15,.7,32.89.8,40.63,14.78Zm-439.9-13.6c22.3-1.77,27.2,20.14,25.51,26.21l-3.18.51c-1.49-2.86-4.4-25.61-22.33-26.72Zm-218-6.57c-5.66-1.44-10.54-1.57-16.17-2.38-7.76-1.12-6.48-2.93-13.86,1.58-8.33,5.11-15,9-17.47,18.9C30,750.54,37.42,747,58.74,749.63c8,1.82,17,5.29,23,10.67C88,766,89.61,773.59,93.51,780.65c11.12-2.95-3.61-29.31-30.35-34.5ZM536.4,757.88c5.6,4.65,5.64,9.33,6.31,16.67.89,9.77-.45,13.51-9.84,16.23,2.29-14,.7-18.23-3.86-30.38-2.42-1.17-6.31-6.88-9.17-9-4-3-9.94-4.2-13.41-6.49a10.64,10.64,0,0,1,7.35-.35c9.62,2.58,15.5,3.56,22.62,13.31Zm-24.68,56.57c-3.46-2.25-2.22,1.49-13.7.52-38.45-3.24-33-52.76-14.14-64.91,3.45-2.22,9.36-4.31,12-6.88-7.72-1.4-9.63-3-15.38.89C451,763.85,458.6,801.45,477.13,817c6.7,5.62,27.75,2.56,34.59-2.52ZM247,774.39c-2.2,16.9,2.67,17,8.48,29.34,6.14,5.22,10,6.85,18.15,8.18-.23.16-.56.17-.68.51s-.55.39-.71.46c-9.45,4.1-11.33.55-20.37-5.38-6.1-4.86-8.9-12.53-11.15-20.16.28-11.17-2-21.61,5-32.14,9.21-13.87,13.54-10.92,29.33-11.9-4.56,4.82-27.08,11.91-28.07,31.09Zm42.39-31.58c17.52-2.17,32,6.7,34.26,24.75l-6.12,5.24a56.89,56.89,0,0,0-10-18.8c-7.08-8.94-7.66-7.76-18.1-11.19Zm350.85.94-.73-12.43c11-3.53,19.81-4.79,31.22-2.77,3.6,4.29,4.22,7,3.92,12.63l-34.41,2.57ZM119.5,742.41c-14.77-7.82-39.16-8.83-55.93-7,4.25,2.25,10.05,3.41,14.84,5.48s8.9,5.37,13.26,7.2c1.72,4.36,5.82,6.37,9,11.11,9,13.42,15.49,29.24,8,45.11-4.93,10.5-11.37,13.29-19.38,19.93-17.72,14.71-17,7.31-24.88,13.48,104.64,9.44,95.86-83.47,55.05-95.31Zm395-9.51c-3.9-.85-5.94-.83-9.42,1.25,3.45,2.11,2.22,1.41,5.78,1.21,2.85-.15.11-1,3.81.36,6.45.6,13.64,3.76,18.89,7.13,1.24,2,28.86,19.91,14.68,51.06-6.55,14.37-14.58,17.13-17.14,19.93-5.51,6-18.51,9.66-23.34,11.57,15.27,1.49,25.76.61,40.3-1.71,27.56-4.41,45.1-32.36,41.62-53.58-.82-5-4.2-14-7-18-3.93-5.6-8.29-8.26-11.77-13.39l-2.21,1.1c-3.71-2.07-12.82-3.94-14.39-5.48-5.91.23-14.26-1.86-21.66-2l-18.1.56Zm-160.56,4.83c-13.11-5.89-13.41-5.22-27.78-5.89a261.25,261.25,0,0,0-32,.13l18,4.67c2.54,2.78,6.94,4.86,9.81,7.73,19.84,19.86,15.94,45.34.66,61.33-11.12,11.64-15,11.24-22.44,9.8-8.55,6.53-14,5.11-23.52,7.51,12.16,2.31,31.87-1,44.07-3.56,20.47-4.29,46.16-24.31,46.95-48.27.43-13.06-4.37-24.93-13.68-33.45Zm159.21-14.31c-.43-4.46-.68-10,1.08-13.14,4.45-3.54,24-3.53,28.4.17l.21,13.5-29.69-.53Zm-438.2-7.06c7.41-5.43,22.42-2,31-.48l-1.09,9.49c-4.94.58-24.19-.13-28.3-1.65l-1.65-7.36Zm210.62-1.82c10.42-.4,23.64-1.65,33.07-.28l.35,6.41c-7.07-.12-29,2.13-32.76.77l-.66-6.9ZM78.84,698.19l23,1,1,5.87-23.39-.71-.62-6.21Zm214.72-1c4.36-2.69,11.39-2.68,16.59-1.89l1.9,7.54-18.79.35.3-6Zm231.16-21L539,677c.3,1.81-.75,19.64-1.71,21.47-2.56,1.48-10,1.37-12.34.29-2.11-5.34.85-15.21-.24-22.5Zm2.46-8.29c-.9-5.87-1.27-7.23,3-11.16,13.44-2.49,14.89,13.32-3,11.16Zm103.48-24.75,9.56-.64,20.15,74.65-10.92.9-18.79-74.91Zm-14.52-20.63,30.58,1c-.29,8.56-6.12,9.55-14,10.12-12.56.92-14.86.88-16.61-11.16ZM519.5,654.32c3.26-3.2,4.78-5,9.68-6.54-2.47-6.94-19-26.56-25.28-31.48-2,.79-10.33,5.59-8.68,6.76,1.06,5.77,7.86,12.87,11.37,17.79,3.87,5.43,6.28,11.67,12.13,16l.78-2.57ZM291.39,606.48l8.26-.28c4.25,11.35,8.28,66.25,7,78.16l-5,0-10.27-77.93ZM480.9,617.16c-3.37-2.14-7.63-4.76-10.28-8.27,3-4.65,24-17.11,29.71-19,5.25,8.6,7.52,8.9-2.2,15.68-4.61,3.22-12.18,9.61-17.23,11.62Zm-395.81-23,11.17.32c5.26,28.77,4.62,64.93,2,94.24l-9.49-.26c-1.82-7.57-.15-37.82-.51-48.52-.52-15.3-2.07-30.53-3.17-45.78ZM285.62,597l-.75-7.65,20.21.15c-1.36,10.29-9.94,8.62-19.46,7.5ZM77.7,572.08c8.4.92,21.39,1.2,28.13,4.6l-.44,8-27-1.1-.67-11.53Zm507.81-35.31L616,533.05c4.56,7,7.51,18.8,7.19,27.41-6.15,4.6-21.44,14.73-27.45,5.49-3-4.67-11.21-24.56-10.26-29.18Zm-340.15.6c19.92.07,48.86,8.34,80.29,7.73C318.26,578.66,315,579.34,280.81,578c-27.26-1-26.8-19.91-35.45-40.67Zm264.53,1,53.15.32c4.23,22,5.48,57.9,19.43,72.49,8.6,9,15.06,6.85,20.18,10.75,6.11,5.72,3,13.08,13.58,19.89,6.61,4.24,7.28,16.75,9.15,24.25l12.89,54.45c-12.88,8-10.84,12.12-8.73,26.45-9.94,1-26.86,8.57-31.81,16.24-1.5-3-1.63-5.51-3.12-7.88-2.51-4-2.05-1.19-4.37-6.43-3.63-8.19-14.71-17.58-20.34-19.06-22.29-5.91-15.86-3.46-17.54-23.6l-4.2-4.81c-1.46-2.31,0-20.25.36-25.41.41-6,1.31-2.27-1.56-7.66,4.58-13-5.34-24.61-12.67-34-5.66-7.29-15.09-20.93-22.15-26.18,1.11-3.11,5.1-7.28,4-12.87-1-4.73-3.86-10.24-7.94-12.41,2.74-7.55,17.16-17,1.69-43-1.73-1.5-1,1.08-2.26-1.69,2.55-1.51.72-1.47,2.29.16Zm-73.23-61.79c-17.68-12.69-75.22,32.24-69.9,59.35,4.71,24,42.78,60.15,63.83,71.62,11.09,6,14,5.94,23.86-1.57,22.18-17,56.55-26.81,49.75-49.84-5.45-18.41-29.44-46.77-44.8-60.09-3.44-3-16.54-13.62-18.22-16.16-2.9-3.16-1.65-1.57-4.52-3.31Zm188.93,54.8c6.25,25.78,17.4,34.28-15.53,45.36-26.83,9-26.22-29.6-34.93-38.43.21,11.87,5.72,47.8,10.59,58,4.24,8.83,9.82,12.87,19.57,13.71,53.24,4.57,65.54,8.16,63.11-32.1-1-16.78-2.19-46-5.12-61.54-11.9,10.62-21.62,12.58-37.69,15Zm-383.84-5.32c1.13,5.32,2.54,3.85,9,4.43,3.55.32,7.17.81,10.73,1.21,9.69,1.08,62.48,10.47,66.7,2.81l-86.39-8.45Zm-104.81-9c-4.73,54-13.27,50.26-48.39,45.6-28.95-3.84-43,1.82-38.84-58.77,2.58-37.43,10.65-50.65,50.81-46.24,8.83,1,30.91,5.72,34.5,14.4,3.22,7.78,2.72,35.91,1.92,45ZM406.06,470.5c-4.8,6.32-20.68,15-28,22.12-7.56,7.32-19.71,19.46-21.11,30.94-12.16-6.72-36.88-4-51.11-4-18.66.09-35.42-1.12-53.68-1.64l-52.49-2.47c-14.46.2-37.6,1.34-50.2-4.35-3.39-33,8.6-61.34-57.08-64.8-1.18-45.31,23.64-41.18,67.08-37.12C193.63,412.4,231,413,265.3,412c30.76-.89,80.52-11,98.14-8.58,15.94,2.22,22.29,13.17,28.09,26.77,4.65,10.88,11.66,29.06,14.53,40.3Zm422.75-204c-2.35,54.07,1,59.1-45.7,61.51-31.85,1.65-125.3,2.82-157.16-3.54-18.66-3.74-19.71-17.27-19.64-34.11s2.26-34.25,3-51.35.94-34.24,1.58-51.37c2.86-76.47-15.75-66.73,149.47-65.79,16.8.1,34.85,0,51.4,2.54,16.85,2.59,15,24.21,15.72,38.35,1.63,33.94,2.76,69.84,1.3,103.76ZM65,438.75c2.12-4.61,2.31-11.39,4-16.74,11.16-35.84,30-32.16,30.4-109,.12-19.79-1.18-50.91-12.39-67.44-10.81-15.94-9.73-9.67-2.78-27.78,4.26-11.12,10.43-17.12,14.05-25.55C56.55,201.7,66.75,269.13,66.54,301.1c-.08,11.95-.31,22.62.48,34.6,1.55,23.74-4.13,74.39-2,103.05Zm437.38,89.18c-6.67-6.61-8-13.26-16.81-20-4.43-3.4-4.79-6.69-8.51-10.57L447.4,471c-2.78-2.78-9-21.15-11.6-26.6C417.35,406,396,379.79,393.88,334.51c-2-42.54,1.24-92,22.56-129.2,13.62-23.78,63.78-69.11,84-67.05,9.9,28.93,14.8,34.78,47.45,35.23-.08,12-3,28.34-4.8,40.47-2.12,14.29-2.74,28.25-3.85,42.63-4.74,61.12-1.54,74.93,56.48,79.28,7.51.56,14,.69,21.51.84,6.75.14,14.25,2.25,21.47,2.89,14.66,1.29,29.4,1,44.11,1.4,22.5.56,24.91-3,21.14,21.94-3.91,26-11.51,49-17.66,74.11-18.2,74.31-27.52,82.9-94,89.85-29.48,3.09-60.59,2.55-90,1ZM564.3,322c-1.9-5.71-4.32-7.86-5.34-15.1-3.71-26.5,3.8-110.31,7.27-135L557,174c-4.91,44.33-9.23,77.35-8.72,122.36.17,14.76,2.92,19.88,16,25.69ZM445.42,156.77c1.68-4.48,1.67-4.19.53-9.07-16.69-5.56-160.95,11.35-189,13.86-16.31,1.47-30.13,2.2-46.44,4.7-18.06,2.77-69.1,12-84.49,17-9,3-17.68,22.94-15,33.6,6.5,6.87,35.1,2.32,45.54,1.36,15.73-1.46,30.87-2.3,46.63-3.2,31.38-1.78,61.51-6.07,93.13-7.12,21.77-.72,66.25-6.49,86.13-13.9,29.18-10.86,33-28.28,62.93-37.27ZM93.57,240.46c-2.18-1.28-1.55-1.76-2.31-3.58,4.86,1.6,2.15.31,4.43,3.2,3.16,2.55,8.91,1.24,12.47.36,1.92-4.68,3.21-12.37-1.71-15.51-6-3.8-11.52-.11-16.43,2.08.89-12.45,8.86-18.94,14.8-27.81-.11,16.26-8.79,27.65,22.1,27.06,17.46-.34,34.36-2,51.84-3.26s34.61-1.07,52.14-2.65,34.64-3.48,52.3-4.07c30.34-1,68.82-4.7,97.81-12.93,11.77-3.34,26.15-12,35.3-19.67,5.48-4.6,27.13-22.67,29.11-26.91,6.26-3.13,9.1-8,16.14-9.85-17.9,17-41.32,33.28-52.89,56.51-16.15,32.44-19,52.08-20.93,88.3C385,342.38,391,382.17,417.63,425.58c5.88,9.6,14.58,25.95,18.07,36.32L413.16,467c-11.36-17.63-12.32-63.08-44.89-70.71-21.28-5-79.77,6.76-106.54,7.39a950.72,950.72,0,0,1-111.35-4c-44.64-4.05-65.76-6-66.94,46.54L72,448.34c.14-18.85,5.1-38.29,17.9-52.28,20.1,15.27,25.85-17.76,5.79-12.56,10.54-28.88,11.94-38.19,11.46-72.86-.37-26.51-1.46-46.73-13.61-70.18ZM511.21,135.27c2.05,22,14.52,27.35,34.44,27.33,8.89,0,18.68,1,25.55-5.35a27.39,27.39,0,0,0,8.32-22c-1.49-16.2-19.66-26.48-35-27.1-20.41-.82-35.56,3.08-33.31,27.15Zm325.75-8c16.53-12.28,41.61-7.58,45.67,14.5,1.68,9.18-2.46,21-10.78,25.06s-23.09,1.21-31.6-1.68L837,127.28ZM607.2,327.7c-11.52-15.61-12.62-25.68-11-46.3,1.42-17.68,3-34.12,3.75-51.86.75-18,1.54-36.93,1.6-54.9s-1.45-32,6.78-48.47l-18.32,2.42c-1.38,10.07,1.94,11.87-3,24.2-3.26,8.07-6.7,10.21-12.12,15.37-5.86,29.21-5.5,53.62-7,82.88-.78,14.91-1.58,29.17-.67,44.11.83,13.68,3.92,21.38,13.07,30.6l27,1.95ZM576.62,109l9.28,9.87c8.44,1,37-5.8,49.14-6.67,31.42-2.25,145.3-1.75,172.19,0-.89-12.45-1.68-24.08-4.33-36.26-7.31-1.56-24.47-.39-33-.39l-99.7-3.9c-21.9-1.64-44.24-.27-66.18-2.08-6.15-.51-8-2.64-12.8,1.53-8.73,7.65-15.5,25.26-14.64,37.93Zm-416-65.35c17.95,27.29,29.32,47.89,18.68,77.18-2.07,5.7-6.9,25.92-7.95,27.66-4.63-25.44-19.3-30.24-24.59-47.51-5.61-18.36,7.76-40.74,13.86-57.33ZM825.1,28.83c21.82-6.37,29.61,36.24,4.51,39.84-14.71,2.1-21-4-21.85-18.06C807,38.43,814.29,32,825.1,28.83Zm-262-17c12.19-5.13,29.1,5.26,33.17,16.79,2.53,7.16,2.2,13.82-.41,20.87-3.1,8.38-4.39,10.34-13,12.12-13.51,2.8-26.57-5.92-32.73-16.81-6.46-11.44,1.88-28.32,12.92-33Zm-413.25,807L157,804.57c-.66-6,1.3-12.71.94-19.12s-.77-12.81-2.27-19c0-8.65-9.33-18-15-23.38-8.86-8.5-16.35-8.73-25.15-14.24-1.23-9.43,4.33-13-3-20.91-.72-10.88,2.46-9.57-4.52-18.26,5.14-41.43-.08-58.56-1.6-93.9,7.85-7.42,10.18-7.16,9.72-20.32,15.13-.9,19.86-5.53,25.13-19,3.92-10.06,6.91-25.9,7.54-36.82,12.14-.25,27.35,3.7,40.16,3.69,6.47,0,36.3,1.64,40.78,3,3.87,3.05,10.54,40.27,24.77,54.08,5.49,5.33,12.25,6,18.43,9.1,3.29,9.82-.55,8.7,8.83,15.86.41,25.86,11.16,54.22,10,79.93-8.18,8.78-10,6.14-9.07,20.7-12,3-7.63,10.34-7,19.44-15.35,4.17-27.09,9.17-36.66,21.86-9.26,12.28-12.63,31.89-7.49,47,5.55,16.29,12.81,22.76,27.33,31.12,20.75,11.94,38,10.29,60.43,4.43,5.3-1.38,10.8,3.93,31.2-10.43,42.49-29.93,42-93.39-21.89-98.29.56-14.91-2.9-10-5.18-18.36-3.66-13.43,3.35-6.74-7.43-17.57.29-25.51-.79-57.41-7.92-81.52,6.84-4.07,6.73-10,6.37-17.23,19.7-7.24,19-35.09,24.84-52.41,23.23-1.71,4.39-3,16.61-3.68-.55,23.64,30.38,61,50.11,73.86l2.73,2.17.77,1.29,3.32,2.23a64.45,64.45,0,0,0,22.3,11.9c11.33,3.24,13.48-.71,23.5-5.91,11.67,4.7,10,9.85,25.64,12.82l28.5,40.15,3.65.24c1.36,5,.73,2.19-.57,4.32l-1.43,27.14c-5.08,1.78-5.11,3.45-8.1,4.92-.95,7.69-2.37,10.49-2.05,19.45-23.64,8.8-15.67,7.81-22.75,10.72-2.51,1-5.76,2.41-8.21,3.26-3.13,3.36-6.05,5.94-10.57,7.85-.14,5-.43,3.4-3,4.06-2.06,6.25-6.66,11.91-7.35,19.22-6.46,6.35,3.94,46.28,25.25,57.32,15.21,7.88,16.44,2.18,19.17,7.1l-31.56,4.23c-5.93.84-6.62-.76-8.1,4.12,5.64,3.64,44.18-.88,53.88-1.4,20-1.07,32.66,1.65,51.71,3.55-3.5-1.72-66.2,2.88-75.56,3.82-2.93.3-128.62,10.06-107.3,31,7.8,7.65,84.76.44,96.7-.57,86.71-7.39,182.88-6.86,273.23-11.95,6.39-.36,13.74-.53,20.15-.54,10.24,0,16.89,1.66,18.89-2.38-6.21-3.76-71.83-7-79.32-4.53,7.56-7.61,28.64-12.08,32.33-45.74,1.38-12.68,1.28-17.43.52-30.06-18.85-53.38-47.42-35.39-55.24-43.19-2.64-2.9-1.67-10.64-4-15.06-2.56-4.76-7.41-5.89-11-8.29-1.25-2.7-3.79-14.42-5-18.68-4.79-17.18-13.79-43.14-16.79-58.73,7.5-6.54,7.86-7.56,7.45-18,26.12-4.09,23.7-29,22.57-50-1.23-22.94-4.57-44.88-4.87-68.13,16-25.31,18.32-47.73,25.32-76.15,6.48-26.29,8.19-39.48,13.16-63.28,1.55-7.44,1.56-15.37,3.15-23,23-1.68,47.08.33,70.76-1.8,20.24-1.82,41.94-1.7,48.37-24.6,8.79-31.29,4.67-104,4-139,45.21,15.33,59.1-15.91,54-37.07C884.66,99,840.47,107,829.61,120l-11.5-6.67-2.68-36.52c17.5,3.19,27.83,3.36,37.17-12.72,7.81-13.42,3.48-29.4-7.1-38.95-20.72-18.71-59.22,4.49-46.27,38.14-34.26,3.4-107.2-2.9-145-3-16.35-.05-33.05.12-49.36-1-.82-6.18,11.85-26.77-6.46-45.92C564.75-21.83,526.29,20.56,539.94,48c6.83,13.71,22.79,23.26,38.39,23.47-4.65,11.8-9.49,16.31-11.75,30.19-4.44,0-22.11-8-43.57-2.11-24.67,6.79-19.78,23.52-23.67,27.55-7.63,3.51-26.86,2.26-37.71,4-12.3,2-24,5.42-36.46,6.46-25.95,2.17-53.14,5.67-79,6.71-24.87,1-52,5.29-77.34,7.39-33.55,2.78-42.09,7-78.7,7.4-2.22-3.45-4-5.74-8.36-7.17,2-18.1,4-21.17,10.51-37.09,11-26.83-10.34-50-21.4-68.86-9.51-16.25-4.5-24.57-10-38.67-4.46-.68-3.19-1.22-7,1.17-2.17,9.53,4.64,19.43-4.45,40.76-5.64,13.24-9.09,21.09-12.42,35.4-8.27,35.51,23.76,38.52,25,67.37-3.6,4.36-4.5,3.82-6.94,10.23-15.9,1.61-65,13.06-76.07,22.91-19.9,17.7-24.09,50.16-25.53,74.47-1,17,1.53,32,1.36,48.68-.48,48.42-5.11,98.53-.57,148.29C35,474.63,31.51,530.61,43,554.4c8.83,18.29,13.08,10.07,24.19,17.51C68,587,65.21,583.65,75,594a674.88,674.88,0,0,1,2.44,94.2c-9.22,4.57-8.88,6.81-7.48,17.52-5.13,8.27-5,8.67-3.62,19-62.14,3.14-85.66,61.66-48.72,102,25.18,27.51,89.53,29.34,120.83,3.63C143,826.66,144.5,822.62,149.87,818.85Z"/><path class="cls-4" d="M424.62,166.41s23.92-17.3,26.89-21.61a14.94,14.94,0,0,1,6.41-5.55l1.1,5.23-25.81,23.44-9.5,2.9Z"/></g></g></svg>